<?xml version="1.0" encoding="UTF-8" standalone="no"?>
<!-- Created with Inkscape (http://www.inkscape.org/) -->

<svg
   xmlns:dc="http://purl.org/dc/elements/1.1/"
   xmlns:cc="http://creativecommons.org/ns#"
   xmlns:rdf="http://www.w3.org/1999/02/22-rdf-syntax-ns#"
   xmlns:svg="http://www.w3.org/2000/svg"
   xmlns="http://www.w3.org/2000/svg"
   xmlns:sodipodi="http://sodipodi.sourceforge.net/DTD/sodipodi-0.dtd"
   xmlns:inkscape="http://www.inkscape.org/namespaces/inkscape"
   width="200"
   height="204.27684"
   viewBox="0 0 52.916665 54.048246"
   version="1.1"
   id="svg8"
   inkscape:export-filename="/home/urgen/Dropbox/for_dev/folio/userpic.png"
   inkscape:export-xdpi="120"
   inkscape:export-ydpi="120"
   inkscape:version="0.92.3 (unknown)"
   sodipodi:docname="userpic.svg">
  <defs
     id="defs2" />
  <sodipodi:namedview
     id="base"
     pagecolor="#ffffff"
     bordercolor="#666666"
     borderopacity="1.0"
     inkscape:pageopacity="0.0"
     inkscape:pageshadow="2"
     inkscape:zoom="1"
     inkscape:cx="142.22518"
     inkscape:cy="91.048687"
     inkscape:document-units="px"
     inkscape:current-layer="layer1"
     showgrid="false"
     fit-margin-top="0"
     fit-margin-left="0"
     fit-margin-right="0"
     fit-margin-bottom="0"
     units="px"
     inkscape:window-width="1280"
     inkscape:window-height="974"
     inkscape:window-x="0"
     inkscape:window-y="24"
     inkscape:window-maximized="1" />
  <metadata
     id="metadata5">
    <rdf:RDF>
      <cc:Work
         rdf:about="">
        <dc:format>image/svg+xml</dc:format>
        <dc:type
           rdf:resource="http://purl.org/dc/dcmitype/StillImage" />
        <dc:title></dc:title>
      </cc:Work>
    </rdf:RDF>
  </metadata>
  <g
     inkscape:label="Layer 1"
     inkscape:groupmode="layer"
     id="layer1"
     transform="translate(-89.520777,-52.011065)">
    <g
       id="g825"
       transform="translate(-6.8791665,10.31875)">
      <path
         d="M 148.93917,68.716438 A 26.080889,26.646679 0 0 1 122.8686,95.363115 26.080889,26.646679 0 0 1 96.777396,68.737531 26.080889,26.646679 0 0 1 122.82731,42.069778 26.080889,26.646679 0 0 1 148.93913,68.674254"
         sodipodi:open="true"
         sodipodi:end="6.2816022"
         sodipodi:start="0"
         sodipodi:ry="26.646679"
         sodipodi:rx="26.080889"
         sodipodi:cy="68.716438"
         sodipodi:cx="122.85828"
         sodipodi:type="arc"
         id="path843"
         style="display:inline;opacity:0.98000004;fill:none;fill-opacity:1;fill-rule:nonzero;stroke:#198198;stroke-width:0.75488698;stroke-miterlimit:4;stroke-dasharray:none;stroke-dashoffset:0" />
      <path
         style="color:#000000;display:inline;overflow:visible;visibility:visible;fill:#198198;fill-opacity:1;fill-rule:evenodd;stroke:none;stroke-width:0.47627977;marker:none;enable-background:accumulate"
         d="m 126.49578,77.867115 c 1.30758,-1.31568 2.29714,-2.874886 3.35731,-4.381463 -0.26912,1.674875 -0.68661,3.342679 -0.86383,5.021931 -0.19709,0.964452 0.5581,1.951887 1.08657,0.555742 1.27518,-2.835222 2.52368,-5.767344 4.51208,-8.17497 0.82073,-0.526757 1.64143,-1.053512 2.46213,-1.580278 1.16825,1.700021 2.27256,-2.994634 0.63261,-2.131545 -0.62209,0.930342 -1.25614,2.275193 -2.59257,2.119289 0.14334,-1.504757 1.17943,-2.525995 2.05838,-3.581048 0.22357,-2.124269 -2.21948,-0.844296 -1.58732,0.684069 0.0714,0.694765 -1.59656,3.509019 -1.4996,1.804649 -0.22929,-0.859729 0.92475,-1.640708 0.1519,-2.449788 -1.2177,0.06157 -1.05663,1.442099 -0.84319,2.282728 0.0873,0.782842 0.0932,1.552803 -0.30407,2.259068 -0.42419,0.949262 -0.63909,2.039533 -1.19465,2.900279 -0.74025,0.911654 -0.49409,0.0913 -0.32666,-0.590796 0.35419,-1.842113 0.86682,-3.664089 1.11517,-5.519661 -0.40178,-0.680592 -1.06944,0.854416 -1.4928,1.203569 -1.18855,1.503336 -2.37707,3.006672 -3.56562,4.510008 0.83045,-2.469268 1.91744,-5.46116 0.36003,-7.866766 -0.38685,-0.654835 1.16165,-0.277651 1.66777,-0.45633 1.23796,0.220327 1.91782,-0.811156 1.98907,-1.954484 0.97183,-3.56473 1.88897,-7.310495 4.20813,-10.265776 1.88438,0.184285 0.82852,-4.050375 -0.0104,-1.51042 -0.0156,1.048524 -0.8547,2.367159 -1.77911,2.368019 -0.1127,-0.834811 0.14749,-1.697767 0.29096,-2.512887 0.71899,-0.744444 1.44229,-3.198644 -0.32786,-2.116872 -1.30721,1.344931 0.39802,2.851874 -0.68562,4.378419 0.0338,1.599392 -1.35484,1.030423 -1.04846,-0.04349 0.79222,-1.002342 -0.40949,-2.365131 -0.95464,-0.854576 -1.01454,1.568735 1.26045,2.119863 0.7413,3.758955 -0.30475,1.270831 -1.578,-0.678473 -1.67275,1.140623 -0.36148,2.056676 1.04012,0.3463 1.71336,0.218146 -0.0182,1.712161 -0.79954,4.229945 -1.84901,5.286192 -1.52791,-0.417807 -3.37089,-0.746657 -4.19837,-2.261135 0.27117,-1.94545 0.65335,-3.883845 0.85399,-5.833767 -0.56184,-1.208289 -2.16866,-0.767598 -2.82652,-1.924152 -1.95021,0.01246 -3.57562,1.570341 -4.75515,3.005491 -0.76727,0.898764 -0.58688,2.195042 -1.36609,3.072318 -0.64545,1.092915 -1.62294,2.471292 -0.8409,3.73199 0.38335,1.094625 0.94994,2.180168 1.22251,3.280288 -0.6735,2.819107 -2.31677,5.26111 -3.67377,7.783135 -1.62336,-0.612663 -3.40168,-3.276713 -0.80862,-3.731041 1.01314,-1.332655 -0.83787,-2.359134 -0.92364,-0.56765 -1.01042,1.155517 -0.80188,-1.501007 -0.43663,-2.067844 0.66986,-0.688704 0.34946,-2.920326 -0.77217,-1.759607 -0.94023,1.049005 0.57745,1.847436 -0.0906,2.958133 -0.50651,1.431616 -2.12979,-1.210006 -1.33178,-1.962118 -0.026,-2.875312 -3.35498,1.508971 -0.82032,1.362981 0.36515,0.393478 0.56454,1.114186 0.67786,1.668741 0.12049,0.961848 -1.82003,1.669097 -1.92688,0.439247 -1.26315,-1.12315 -1.48704,3.348804 0.0712,1.500142 1.76778,-0.74373 3.56624,1.094426 4.51682,2.500636 0.6204,1.156185 1.68787,2.75699 2.50636,0.922869 0.70019,-0.945958 1.40041,-1.891917 2.1006,-2.837875 -0.29119,1.703656 -1.01239,3.601018 -0.22669,5.260889 0.73772,0.628822 2.37001,2.24361 0.49038,2.087618 -1.28987,0.181559 -2.57973,0.363084 -3.8696,0.54462 -1.07611,0.549533 0.0234,1.660764 0.31544,2.399685 0.45013,0.850713 0.90024,1.701415 1.35035,2.552123 -0.63717,0.558697 -1.11982,0.07317 -1.60217,-0.414345 -0.48748,-0.428736 -1.13381,-0.775179 -1.00146,-1.525112 -0.17995,-0.661081 0.0984,-1.391846 -0.12282,-2.012678 -1.40044,-0.273915 -1.25786,1.723978 -0.55582,2.302381 0.70772,1.249888 -1.46743,1.606335 -1.5875,0.434137 -0.0732,-2.013839 -2.1544,0.345276 -1.59345,1.483687 0.74112,0.01999 2.42708,-0.673246 2.30852,0.85386 -0.65566,1.31348 -1.8621,1.151965 -2.90115,1.50688 -1.04953,1.144025 0.57144,3.27933 1.09922,1.270514 0.17216,-0.787354 1.1223,-1.005298 1.65556,-1.52835 0.73797,-0.71813 1.70956,-1.024934 2.72795,-0.691041 1.26702,0.319115 2.4457,0.906757 3.52996,1.627278 1.17323,-0.05152 0.8493,-1.494625 0.74987,-2.280203 -0.4741,-1.041173 -0.9482,-2.082349 -1.4223,-3.123522 1.4385,0.214043 2.9212,-0.510419 4.23727,-0.122095 1.93392,1.171051 3.59499,-0.412271 4.31195,-2.136625 0.42656,-0.739079 0.80858,-1.503544 1.17949,-2.271051 z"
         id="path3154"
         inkscape:connector-curvature="0" />
    </g>
  </g>
</svg>
