<?xml version="1.0" encoding="UTF-8" standalone="no"?>
<!-- Created with Inkscape (http://www.inkscape.org/) -->

<svg
   xmlns:dc="http://purl.org/dc/elements/1.1/"
   xmlns:cc="http://creativecommons.org/ns#"
   xmlns:rdf="http://www.w3.org/1999/02/22-rdf-syntax-ns#"
   xmlns:svg="http://www.w3.org/2000/svg"
   xmlns="http://www.w3.org/2000/svg"
   xmlns:sodipodi="http://sodipodi.sourceforge.net/DTD/sodipodi-0.dtd"
   xmlns:inkscape="http://www.inkscape.org/namespaces/inkscape"
   width="8.2020845mm"
   height="8.2020836mm"
   viewBox="0 0 8.2020845 8.2020836"
   version="1.1"
   id="svg8"
   inkscape:version="0.92.3 (2405546, 2018-03-11)"
   sodipodi:docname="r_e_wite.svg">
  <defs
     id="defs2" />
  <sodipodi:namedview
     id="base"
     pagecolor="#ffffff"
     bordercolor="#666666"
     borderopacity="1.0"
     inkscape:pageopacity="0.0"
     inkscape:pageshadow="2"
     inkscape:zoom="0.86132812"
     inkscape:cx="356.28912"
     inkscape:cy="-222.10544"
     inkscape:document-units="px"
     inkscape:current-layer="layer1"
     showgrid="false"
     fit-margin-top="0"
     fit-margin-left="0"
     fit-margin-right="0"
     fit-margin-bottom="0"
     inkscape:window-width="1366"
     inkscape:window-height="712"
     inkscape:window-x="0"
     inkscape:window-y="28"
     inkscape:window-maximized="1" />
  <metadata
     id="metadata5">
    <rdf:RDF>
      <cc:Work
         rdf:about="">
        <dc:format>image/svg+xml</dc:format>
        <dc:type
           rdf:resource="http://purl.org/dc/dcmitype/StillImage" />
        <dc:title></dc:title>
      </cc:Work>
    </rdf:RDF>
  </metadata>
  <g
     inkscape:label="Layer 1"
     inkscape:groupmode="layer"
     id="layer1"
     transform="translate(-9.4149064,-7.8353151)">
    <g
       id="g958"
       transform="translate(-6.3494969,-4.6053102)"
       style="fill:#3366cc">
      <g
         transform="matrix(0.35529816,0,0,0.35529816,16.307341,12.988685)"
         id="g128"
         style="fill:#ffffff">
        <path
           style="fill:#ffffff"
           inkscape:connector-curvature="0"
           d="m 1.62,10 a 13.63,13.63 0 0 0 0.45,3.51 13.39,13.39 0 0 0 1.33,3.19 0.91,0.91 0 0 1 0.1,0.27 0.41,0.41 0 0 1 0,0.21 0.38,0.38 0 0 1 -0.1,0.15 l -0.14,0.11 -0.83,0.5 a 14.89,14.89 0 0 1 -1.11,-2 13.62,13.62 0 0 1 -0.74,-2 13.22,13.22 0 0 1 -0.42,-2 16.4,16.4 0 0 1 0,-4.14 13.22,13.22 0 0 1 0.42,-2 13.84,13.84 0 0 1 0.74,-2 A 14.94,14.94 0 0 1 2.4,2 l 0.83,0.51 0.14,0.11 a 0.4,0.4 0 0 1 0.1,0.15 0.41,0.41 0 0 1 0,0.21 A 0.93,0.93 0 0 1 3.37,3.25 13.6,13.6 0 0 0 1.62,10 Z M 5,13.51 a 1.53,1.53 0 0 1 0.11,-0.59 1.5,1.5 0 0 1 0.31,-0.48 1.5,1.5 0 0 1 1.65,-0.32 1.51,1.51 0 0 1 0.8,0.8 1.47,1.47 0 0 1 0.12,0.59 A 1.46,1.46 0 0 1 7.87,14.1 1.56,1.56 0 0 1 7.55,14.58 1.46,1.46 0 0 1 7.07,14.9 1.57,1.57 0 0 1 5.89,14.9 1.4,1.4 0 0 1 5.42,14.58 1.5,1.5 0 0 1 5,13.51 Z M 15.8,8.79 15.26,9.73 13.51,8.73 13.17,8.5 A 1.38,1.38 0 0 1 12.9,8.24 1.84,1.84 0 0 1 13,9 v 2 H 12 V 9 a 2.16,2.16 0 0 1 0.12,-0.76 1.82,1.82 0 0 1 -0.58,0.48 l -1.74,1 -0.54,-0.94 1.73,-1 A 2.25,2.25 0 0 1 11.74,7.49 1.77,1.77 0 0 1 10.99,7.21 L 9.2,6.2 9.74,5.26 l 1.75,1 0.33,0.24 A 1.64,1.64 0 0 1 12.09,6.77 2,2 0 0 1 12,6 V 4 h 1 v 2 a 2.93,2.93 0 0 1 0,0.4 1.36,1.36 0 0 1 -0.1,0.36 2.24,2.24 0 0 1 0.59,-0.49 l 1.74,-1 0.54,0.94 -1.73,1 -0.36,0.18 a 1.29,1.29 0 0 1 -0.36,0.1 2.11,2.11 0 0 1 0.36,0.1 2,2 0 0 1 0.36,0.19 z M 18.37,10 A 13.65,13.65 0 0 0 17.92,6.49 13.81,13.81 0 0 0 16.6,3.22 0.93,0.93 0 0 1 16.5,2.95 0.45,0.45 0 0 1 16.5,2.74 0.36,0.36 0 0 1 16.6,2.59 L 16.74,2.48 17.6,2 a 15.54,15.54 0 0 1 1.1,2 13.79,13.79 0 0 1 0.74,2 13.18,13.18 0 0 1 0.42,2 16.16,16.16 0 0 1 0.14,2 16.21,16.21 0 0 1 -0.13,2 13.18,13.18 0 0 1 -0.42,2 13.57,13.57 0 0 1 -0.74,2 15.49,15.49 0 0 1 -1.1,2 l -0.84,-0.5 -0.14,-0.11 a 0.35,0.35 0 0 1 -0.1,-0.15 0.44,0.44 0 0 1 0,-0.21 0.91,0.91 0 0 1 0.1,-0.27 13.62,13.62 0 0 0 1.31,-3.23 13.69,13.69 0 0 0 0.43,-3.53 z"
           id="path116" />
      </g>
      <path
         style="fill:none;stroke:#ffffff;stroke-width:0.26458332;stroke-linecap:butt;stroke-linejoin:miter;stroke-miterlimit:4;stroke-dasharray:none;stroke-opacity:1"
         d="m 15.896695,12.572917 h 7.937501 v 7.9375 h -7.937501 z"
         id="path921"
         inkscape:connector-curvature="0" />
    </g>
  </g>
</svg>
