<?xml version="1.0" encoding="UTF-8"?>
<!-- Created with Inkscape (http://www.inkscape.org/) -->
<svg width="26.989" height="22.838" version="1.1" viewBox="0 0 7.141 6.0425" xmlns="http://www.w3.org/2000/svg" xmlns:cc="http://creativecommons.org/ns#" xmlns:dc="http://purl.org/dc/elements/1.1/" xmlns:rdf="http://www.w3.org/1999/02/22-rdf-syntax-ns#">
 <metadata>
  <rdf:RDF>
   <cc:Work rdf:about="">
    <dc:format>image/svg+xml</dc:format>
    <dc:type rdf:resource="http://purl.org/dc/dcmitype/StillImage"/>
    <dc:title/>
   </cc:Work>
  </rdf:RDF>
 </metadata>
 <g transform="translate(-95.146 -135.64)">
  <g transform="matrix(.42006 0 0 .42006 95.146 135.09)" fill="#a87952">
   <path d="m13.077 11.115c0 0.746-0.389 1.962-1.308 1.962-0.92 0-1.309-1.216-1.309-1.962 0-0.745 0.389-1.962 1.309-1.962 0.919 0 1.308 1.217 1.308 1.962zm-7.846-1.962c-0.919 0-1.308 1.217-1.308 1.962 0 0.746 0.389 1.962 1.308 1.962s1.308-1.216 1.308-1.962c0-0.745-0.389-1.962-1.308-1.962zm11.769 0.164c0 1.135-0.112 2.34-0.623 3.382-1.349 2.728-5.057 2.993-7.713 2.993-2.697 0-6.63-0.234-8.03-2.993-0.522-1.032-0.634-2.247-0.634-3.382 0-1.492 0.409-2.901 1.39-4.045-0.184-0.562-0.276-1.155-0.276-1.738 0-0.766 0.173-1.531 0.521-2.227 1.614 0 2.646 0.705 3.872 1.665 1.032-0.245 2.094-0.357 3.157-0.357 0.96 0 1.931 0.103 2.861 0.327 1.216-0.95 2.247-1.635 3.841-1.635 0.348 0.695 0.521 1.461 0.521 2.227 0 0.583-0.092 1.165-0.276 1.717 0.981 1.154 1.389 2.574 1.389 4.066zm-2.289 1.798c0-1.563-0.949-2.942-2.615-2.942-0.674 0-1.317 0.123-1.992 0.215-0.531 0.082-1.062 0.112-1.604 0.112s-1.073-0.03-1.604-0.112c-0.664-0.092-1.318-0.215-1.992-0.215-1.665 0-2.615 1.379-2.615 2.942 0 3.126 2.86 3.606 5.353 3.606h1.717c2.493 1e-3 5.352-0.48 5.352-3.606z" fill="#a87952"/>
  </g>
 </g>
</svg>
