<?xml version="1.0" encoding="UTF-8"?>
<!-- Created with Inkscape (http://www.inkscape.org/) -->
<svg width="8.2058mm" height="8.2058mm" version="1.1" viewBox="0 0 8.2058 8.2058" xmlns="http://www.w3.org/2000/svg" xmlns:cc="http://creativecommons.org/ns#" xmlns:dc="http://purl.org/dc/elements/1.1/" xmlns:rdf="http://www.w3.org/1999/02/22-rdf-syntax-ns#">
 <metadata>
  <rdf:RDF>
   <cc:Work rdf:about="">
    <dc:format>image/svg+xml</dc:format>
    <dc:type rdf:resource="http://purl.org/dc/dcmitype/StillImage"/>
    <dc:title/>
   </cc:Work>
  </rdf:RDF>
 </metadata>
 <g display="none">
  <rect x="-3.9688" y="-1.4361" width="15.154" height="13.611" fill="#333" stroke="#333" stroke-width=".26458"/>
 </g>
 <g transform="scale(1 1)">
  <g transform="matrix(.019357 0 0 .019357 1.5054 .87501)" fill="#fff">
   <path d="m82.554 267.47s-13.198 7.6754 9.3929 10.273c27.369 3.1223 41.357 2.6745 71.517-3.0338 0 0 7.9295 4.972 19.004 9.2784-67.612 28.977-153.02-1.6784-99.914-16.517"/>
   <path d="m74.292 229.66s-14.803 10.958 7.8047 13.296c29.236 3.0162 52.325 3.2628 92.276-4.4302 0 0 5.5259 5.6022 14.215 8.6658-81.747 23.904-172.8 1.8851-114.3-17.532"/>
   <path d="m143.94 165.51c16.66 19.18-4.3771 36.44-4.3771 36.44s42.301-21.837 22.874-49.183c-18.144-25.501-32.059-38.172 43.268-81.859 0 0-118.24 29.53-61.765 94.601"/>
   <path d="m233.36 295.44s9.7671 8.0477-10.757 14.274c-39.026 11.823-162.43 15.393-196.71 0.47104-12.323-5.3611 10.786-12.801 18.056-14.362 7.5813-1.644 11.914-1.3377 11.914-1.3377-13.705-9.6545-88.583 18.957-38.034 27.151 137.85 22.356 251.29-10.067 215.54-26.196"/>
   <path d="m88.901 190.48s-62.772 14.909-22.229 20.324c17.118 2.2919 51.244 1.7734 83.031-0.88995 25.978-2.1914 52.063-6.8506 52.063-6.8506s-9.1602 3.9228-15.787 8.448c-63.744 16.765-186.89 8.9656-151.43-8.1827 29.981-14.492 54.358-12.848 54.358-12.848"/>
   <path d="m201.51 253.42c64.799-33.672 34.838-66.03 13.926-61.671-5.1256 1.0668-7.411 1.9912-7.411 1.9912s1.9028-2.9808 5.537-4.271c41.371-14.545 73.187 42.897-13.355 65.648 0 9.3e-4 1.0026-0.89554 1.3023-1.697"/>
   <path d="m162.44 0.37143s35.887 35.899-34.037 91.101c-56.071 44.281-12.786 69.53-0.0233 98.377-32.73-29.53-56.749-55.526-40.635-79.72 23.652-35.515 89.175-52.734 74.695-109.76"/>
   <path d="m95.268 344.67c62.199 3.9815 157.71-2.209 159.97-31.64 0 0-4.3483 11.157-51.404 20.017-53.088 9.9905-118.56 8.8241-157.4 2.4213 9.31e-4 -9.3e-4 7.95 6.5797 48.829 9.2011"/>
  </g>
  <path d="m0.13229 0.37654h7.697v7.697h-7.697z" fill="none" stroke="#fff" stroke-width=".26458"/>
 </g>
</svg>
