<?xml version="1.0" encoding="UTF-8" standalone="no"?>
<!-- Created with Inkscape (http://www.inkscape.org/) -->

<svg
   xmlns:dc="http://purl.org/dc/elements/1.1/"
   xmlns:cc="http://creativecommons.org/ns#"
   xmlns:rdf="http://www.w3.org/1999/02/22-rdf-syntax-ns#"
   xmlns:svg="http://www.w3.org/2000/svg"
   xmlns="http://www.w3.org/2000/svg"
   xmlns:sodipodi="http://sodipodi.sourceforge.net/DTD/sodipodi-0.dtd"
   xmlns:inkscape="http://www.inkscape.org/namespaces/inkscape"
   width="8.2058372mm"
   height="8.2058392mm"
   viewBox="0 0 8.2058372 8.2058392"
   version="1.1"
   id="svg8"
   inkscape:version="0.92.3 (2405546, 2018-03-11)"
   sodipodi:docname="jq.svg">
  <defs
     id="defs2" />
  <sodipodi:namedview
     id="base"
     pagecolor="#ffffff"
     bordercolor="#666666"
     borderopacity="1.0"
     inkscape:pageopacity="0.0"
     inkscape:pageshadow="2"
     inkscape:zoom="0.86132812"
     inkscape:cx="63.724784"
     inkscape:cy="4.2962125"
     inkscape:document-units="mm"
     inkscape:current-layer="layer1"
     showgrid="false"
     fit-margin-top="0"
     fit-margin-left="0"
     fit-margin-right="0"
     fit-margin-bottom="0"
     inkscape:window-width="1366"
     inkscape:window-height="712"
     inkscape:window-x="0"
     inkscape:window-y="28"
     inkscape:window-maximized="1" />
  <metadata
     id="metadata5">
    <rdf:RDF>
      <cc:Work
         rdf:about="">
        <dc:format>image/svg+xml</dc:format>
        <dc:type
           rdf:resource="http://purl.org/dc/dcmitype/StillImage" />
        <dc:title></dc:title>
      </cc:Work>
    </rdf:RDF>
  </metadata>
  <g
     inkscape:label="Layer 1"
     inkscape:groupmode="layer"
     id="layer1"
     transform="translate(-0.19760976,0.15326024)">
    <g
       id="g212"
       transform="translate(-26.307863,-34.29293)">
      <path
         style="display:inline;fill:none;stroke:#ffffff;stroke-width:0.26833647px;stroke-linecap:butt;stroke-linejoin:miter;stroke-opacity:1"
         d="m 26.639641,34.273838 h 7.937501 v 7.937503 h -7.937501 z"
         id="path208"
         inkscape:connector-curvature="0" />
      <path
         style="fill:#ffffff;stroke-width:0.18057102"
         inkscape:connector-curvature="0"
         d="m 27.828802,36.509519 c -0.572952,0.823404 -0.501627,1.895093 -0.06392,2.769959 l 0.05417,0.101661 c 0.004,0.0078 0.0085,0.01535 0.01264,0.02257 0.0072,0.0139 0.01516,0.02709 0.02275,0.04081 l 0.04153,0.07169 0.02384,0.03918 0.06934,0.107802 a 3.5825293,3.5825293 0 0 0 0.07024,0.1013 l 0.0139,0.0186 a 3.3152841,3.3152841 0 0 0 0.0641,0.08505 l 0.02402,0.0307 0.05923,0.07259 0.02257,0.02709 a 3.7992145,3.7992145 0 0 0 0.08234,0.09408 c 0.0029,0.0031 0.0036,0.0036 0.0048,0.0054 a 4.138688,4.138688 0 0 0 0.08378,0.0883 l 0.02709,0.02709 0.06681,0.06555 0.02745,0.026 c 0.03016,0.02835 0.06067,0.05417 0.09155,0.08342 0.0067,0.0059 0.0121,0.01029 0.01733,0.01481 l 0.08306,0.07223 0.03612,0.02745 0.06934,0.05417 0.03702,0.02817 0.07765,0.05417 0.02835,0.02022 c 0.0027,0.0018 0.0051,0.0036 0.0078,0.0054 0.02492,0.01715 0.0502,0.03359 0.07584,0.05002 l 0.0325,0.02167 a 4.2109165,4.2109165 0 0 0 0.118455,0.07259 l 0.0325,0.01842 0.08884,0.04983 c 0.01806,0.0087 0.03286,0.01697 0.04912,0.02528 l 0.06356,0.03305 0.01445,0.0072 0.026,0.01264 0.100758,0.04659 0.02131,0.0096 a 3.6078092,3.6078092 0 0 0 0.117552,0.04876 l 0.02853,0.01119 0.11087,0.04117 0.0139,0.0048 a 3.5337751,3.5337751 0 0 0 0.123691,0.04045 l 0.0298,0.009 c 0.04225,0.01264 0.08415,0.02799 0.127664,0.03612 2.771043,0.505599 3.576028,-1.665226 3.576028,-1.665226 -0.676058,0.880825 -1.877939,1.11304 -3.013007,0.854462 -0.04298,-0.0098 -0.08487,-0.02312 -0.126942,-0.03557 l -0.0316,-0.0096 a 4.0213169,4.0213169 0 0 1 -0.122246,-0.03973 l -0.0168,-0.0059 a 3.8425516,3.8425516 0 0 1 -0.107801,-0.0399 l -0.03015,-0.01192 c -0.03919,-0.01553 -0.07801,-0.0316 -0.116288,-0.04839 l -0.02348,-0.01029 -0.09805,-0.04568 -0.02835,-0.01354 -0.07584,-0.03864 -0.05056,-0.02654 c -0.0307,-0.01806 -0.06086,-0.03359 -0.09101,-0.05092 l -0.0307,-0.01715 a 4.4041274,4.4041274 0 0 1 -0.118455,-0.07259 c -0.01084,-0.0069 -0.02131,-0.01445 -0.03196,-0.02131 l -0.08433,-0.05417 -0.02709,-0.01914 -0.07945,-0.05778 -0.10726,-0.0809 -0.03214,-0.02564 -0.08956,-0.07548 c -0.0031,-0.0027 -0.0065,-0.0054 -0.0098,-0.0083 a 3.5428036,3.5428036 0 0 1 -0.0939,-0.08559 l -0.02654,-0.02528 -0.06771,-0.06627 -0.02654,-0.02654 -0.08306,-0.08776 a 0.09209123,0.09209123 0 0 0 -0.0042,-0.0043 3.3748725,3.3748725 0 0 1 -0.08415,-0.09588 l -0.02203,-0.02618 -0.06067,-0.07494 -0.02221,-0.02763 -0.07006,-0.09317 c -0.631277,-0.860963 -0.858074,-2.048579 -0.353558,-3.023843 m 1.333156,-0.126761 c -0.414411,0.596246 -0.39184,1.39455 -0.06862,2.025285 a 2.6381428,2.6381428 0 0 0 0.18328,0.305887 c 0.06212,0.08902 0.130914,0.195017 0.213074,0.266342 a 2.3347835,2.3347835 0 0 0 0.09299,0.09643 0.98050071,0.98050071 0 0 0 0.02455,0.02419 l 0.09498,0.09029 c 0.0013,0.0011 0.0025,0.0023 0.0036,0.0036 0.03702,0.0325 0.07223,0.06284 0.111954,0.09263 l 0.02528,0.01806 a 2.7230111,2.7230111 0 0 0 0.116108,0.08469 c 0.0013,8.87e-4 0.0022,0.0018 0.0036,0.0025 0.01751,0.0121 0.03521,0.02348 0.0529,0.03485 0.0085,0.0054 0.01661,0.01138 0.02528,0.01661 0.02835,0.01806 0.05688,0.03575 0.08595,0.05273 l 0.0121,0.0072 0.07584,0.04244 c 0.009,0.0051 0.01806,0.0094 0.02709,0.01409 l 0.05327,0.02745 c 0.0027,0.0013 0.0054,0.0025 0.0081,0.0036 a 2.7266226,2.7266226 0 0 0 0.11087,0.05164 c 0.0081,0.0036 0.01806,0.0067 0.02455,0.01012 l 0.09101,0.03684 0.039,0.01445 c 0.02763,0.01029 0.05544,0.01806 0.08342,0.02889 l 0.03612,0.0121 c 0.03973,0.01264 0.07945,0.02799 0.120982,0.03485 2.139766,0.354461 2.633447,-1.292889 2.633447,-1.292889 -0.445288,0.641388 -1.307334,0.947276 -2.227705,0.70838 a 2.6417542,2.6417542 0 0 1 -0.121163,-0.03503 c -0.01228,-0.0036 -0.02419,-0.0078 -0.03648,-0.01174 a 2.455766,2.455766 0 0 1 -0.08469,-0.02925 l -0.03828,-0.01445 a 2.6706456,2.6706456 0 0 1 -0.09119,-0.03684 l -0.02816,-0.01228 a 2.5460516,2.5460516 0 0 1 -0.111592,-0.05183 c -0.01896,-0.009 -0.03738,-0.01896 -0.05417,-0.02853 l -0.0325,-0.01661 a 2.6580056,2.6580056 0 0 1 -0.07078,-0.0399 l -0.01697,-0.0096 c -0.02889,-0.01697 -0.05742,-0.03612 -0.08577,-0.05417 -0.0087,-0.0054 -0.01715,-0.01155 -0.02582,-0.01733 l -0.05381,-0.03485 c -0.03936,-0.02709 -0.07764,-0.05417 -0.115565,-0.08451 l -0.026,-0.02041 c -0.402673,-0.317805 -0.722285,-0.752619 -0.873964,-1.245218 -0.158903,-0.511015 -0.1264,-1.08469 0.150777,-1.550202 m 1.155655,-0.04244 c -0.244314,0.361142 -0.268329,0.805889 -0.09877,1.202965 0.180571,0.421452 0.544963,0.752077 0.972555,0.908813 l 0.05309,0.01842 0.02348,0.0072 0.0762,0.02203 c 1.181477,0.228242 1.501809,-0.606177 1.589025,-0.728965 -0.280788,0.404118 -0.75244,0.501084 -1.331169,0.3606 a 1.5059624,1.5059624 0 0 1 -0.140124,-0.04315 1.7118134,1.7118134 0 0 1 -0.166306,-0.06916 c -0.102925,-0.0493 -0.200795,-0.109246 -0.291622,-0.177863 -0.517877,-0.392923 -0.839655,-1.142653 -0.501626,-1.751539"
         id="path210" />
    </g>
  </g>
</svg>
