<?xml version="1.0" encoding="UTF-8"?>
<!-- Created with Inkscape (http://www.inkscape.org/) -->
<svg width="8.2021mm" height="8.2021mm" version="1.1" viewBox="0 0 8.2021 8.2021" xmlns="http://www.w3.org/2000/svg" xmlns:cc="http://creativecommons.org/ns#" xmlns:dc="http://purl.org/dc/elements/1.1/" xmlns:rdf="http://www.w3.org/1999/02/22-rdf-syntax-ns#">
 <metadata>
  <rdf:RDF>
   <cc:Work rdf:about="">
    <dc:format>image/svg+xml</dc:format>
    <dc:type rdf:resource="http://purl.org/dc/dcmitype/StillImage"/>
    <dc:title/>
   </cc:Work>
  </rdf:RDF>
 </metadata>
 <g transform="translate(-2.9029e-7 -288.8)">
  <path d="m5.3751 294.14c0.24375-0.0252 0.42866-0.23535 0.42026-0.48752-0.0084-0.25216-0.21853-0.45389-0.47069-0.45389h-0.01681c-0.26056 8e-3 -0.46228 0.22695-0.45388 0.48751 0.0084 0.12609 0.05884 0.23536 0.13448 0.31101-0.28577 0.56316-0.72284 0.97502-1.3784 1.3196-0.44547 0.23535-0.90775 0.3194-1.37 0.26056-0.37823-0.0504-0.67241-0.21854-0.85732-0.49592-0.26896-0.41186-0.29418-0.85735-0.06724-1.3028 0.1597-0.3194 0.41185-0.55475 0.57155-0.67243-0.03362-0.10927-0.08405-0.29419-0.10927-0.42868-1.2187 0.88257-1.0927 2.0761-0.72284 2.6393 0.27737 0.42027 0.84051 0.68084 1.4625 0.68084 0.1681 0 0.3362-0.0168 0.50431-0.0588 1.0759-0.21014 1.8912-0.84895 2.3534-1.7988zm1.4793-1.0423c-0.63879-0.74809-1.5802-1.16-2.656-1.16h-0.13448c-0.07565-0.1513-0.23534-0.25217-0.41185-0.25217h-0.01681c-0.26056 8e-3 -0.46228 0.22695-0.45388 0.48752 0.0084 0.25216 0.21853 0.45389 0.47069 0.45389h0.01681c0.18491-8e-3 0.34461-0.12608 0.41185-0.28578h0.15129c0.63879 0 1.244 0.18492 1.7903 0.54635 0.42026 0.27738 0.72284 0.63881 0.89094 1.0759 0.14289 0.35303 0.13448 0.69765-0.01681 0.99184-0.23534 0.44549-0.63038 0.68925-1.1515 0.68925-0.3362 0-0.6556-0.10087-0.8237-0.17652-0.09246 0.084-0.26056 0.21854-0.37823 0.3026 0.36142 0.16811 0.73124 0.26057 1.0843 0.26057 0.80689 0 1.4037-0.44549 1.6306-0.89098 0.24375-0.48751 0.22694-1.3281-0.40345-2.0425zm-4.2698 1.1852c0.0084 0.25216 0.21853 0.45389 0.47069 0.45389h0.01681c0.26056-8e-3 0.46228-0.22694 0.45388-0.48751-0.0084-0.25216-0.21853-0.4539-0.47069-0.4539h-0.01681c-0.01681 0-0.04203 0-0.05884 8e-3 -0.34461-0.57157-0.4875-1.1936-0.43707-1.866 0.03362-0.50432 0.20172-0.94141 0.4959-1.3028 0.24375-0.311 0.71444-0.4623 1.0338-0.4707 0.89094-0.0168 1.2692 1.0927 1.2944 1.5382 0.10927 0.0252 0.29418 0.084 0.42026 0.12608-0.10086-1.3617-0.94137-2.0677-1.7483-2.0677-0.75646 0-1.4541 0.54635-1.7315 1.3533-0.38664 1.0759-0.13448 2.1098 0.3362 2.9251-0.04203 0.0588-0.06724 0.15129-0.05884 0.24375z" fill="#fff" stroke-width=".025801"/>
  <path d="m0.13229 288.93h7.9375v7.9375h-7.9375z" fill="none" stroke="#fff" stroke-width=".26458"/>
 </g>
</svg>
